<?xml version="1.0" encoding="UTF-8" standalone="no"?>
<!-- Created with Inkscape (http://www.inkscape.org/) -->

<svg
   width="40"
   height="40"
   viewBox="0 0 10.583334 10.583334"
   version="1.1"
   id="svg291"
   inkscape:version="1.2 (dc2aedaf03, 2022-05-15)"
   sodipodi:docname="discord.svg"
   xmlns:inkscape="http://www.inkscape.org/namespaces/inkscape"
   xmlns:sodipodi="http://sodipodi.sourceforge.net/DTD/sodipodi-0.dtd"
   xmlns="http://www.w3.org/2000/svg"
   xmlns:svg="http://www.w3.org/2000/svg">
  <sodipodi:namedview
     id="namedview293"
     pagecolor="#ffffff"
     bordercolor="#666666"
     borderopacity="1.0"
     inkscape:pageshadow="2"
     inkscape:pageopacity="0.0"
     inkscape:pagecheckerboard="0"
     inkscape:document-units="px"
     showgrid="false"
     width="1920px"
     units="px"
     borderlayer="true"
     inkscape:showpageshadow="false"
     inkscape:deskcolor="#d1d1d1"
     inkscape:zoom="11.313708"
     inkscape:cx="42.912545"
     inkscape:cy="23.06936"
     inkscape:window-width="2560"
     inkscape:window-height="1377"
     inkscape:window-x="2552"
     inkscape:window-y="-8"
     inkscape:window-maximized="1"
     inkscape:current-layer="layer1" />
  <defs
     id="defs288" />
  <g
     inkscape:label="Layer 1"
     inkscape:groupmode="layer"
     id="layer1">
    <path
       style="fill:#ffffff;fill-opacity:1;stroke:none;stroke-width:0.7464;stroke-linecap:round;stroke-linejoin:round;stroke-miterlimit:4;stroke-dasharray:none;stroke-opacity:1;paint-order:markers stroke fill"
       d="M 3.8492886,1.5339228 C 3.7107613,1.5343865 2.5647473,1.5672453 1.3557763,2.4723 c 0,0 -1.28956383,2.3367785 -1.28956383,5.2148716 0,0 0.75223511,1.2991827 2.73137003,1.36235 0,0 0.3313558,-0.3969864 0.6000114,-0.7398171 C 2.2602579,7.9668536 1.8304064,7.2541104 1.8304064,7.2541104 c 0,0 0.089572,0.063161 0.2507719,0.1533697 0.00898,0 0.017889,0.00894 0.035777,0.018072 0.02688,0.018072 0.05371,0.027089 0.080624,0.045042 0.2238824,0.126303 0.44776,0.2255775 0.6537243,0.3067585 C 3.218484,7.9307389 3.657303,8.0660543 4.1677617,8.1653006 4.8394125,8.291607 5.6274662,8.3367067 6.487183,8.1742373 6.9080899,8.0930264 7.3379739,7.9757581 7.7857522,7.7862867 8.099187,7.6690054 8.4484249,7.4975903 8.8156009,7.2539896 c 0,0 -0.4477629,0.7308077 -1.6209146,1.0646338 C 7.46335,8.6524438 7.7857522,9.040382 7.7857522,9.040382 9.7648835,8.9772147 10.517122,7.6780199 10.517122,7.6870451 10.517122,4.8089495 9.2275538,2.4721656 9.2275538,2.4721656 7.9469289,1.5067995 6.7200201,1.5338889 6.7200201,1.5338889 L 6.5946802,1.678233 C 8.1170934,2.1383759 8.8245459,2.8150603 8.8245459,2.8150603 7.8931938,2.3098061 6.9797676,2.0571614 6.1290042,1.9579208 5.4842207,1.8857763 4.8662638,1.9038225 4.3199946,1.9760829 c -0.053707,0 -0.09851,0.00903 -0.152233,0.018023 C 3.8543338,2.0301506 3.0931312,2.1384508 2.1348978,2.5624976 1.8035429,2.7068513 1.6065124,2.815136 1.6065124,2.815136 c 0,0 0.7343369,-0.7127818 2.346317,-1.1729106 L 3.8632821,1.5339691 c 0,0 -0.0048,-1.13e-4 -0.014017,-8.39e-5 z m -0.227808,3.3292897 c 0.5104587,0 0.9224136,0.4420615 0.9134624,0.9924335 0,0.550359 -0.4030037,0.9924559 -0.9134624,0.9924559 -0.5014959,0 -0.9134492,-0.4420969 -0.9134492,-0.9924559 0,-0.550372 0.402994,-0.9924335 0.9134492,-0.9924335 z m 3.2687098,0 c 0.5015016,0 0.9134578,0.4420615 0.9134578,0.9924335 0,0.550359 -0.4029979,0.9924559 -0.9134578,0.9924559 -0.5014911,0 -0.9134495,-0.4420969 -0.9134495,-0.9924559 0,-0.550372 0.402999,-0.9924335 0.9134495,-0.9924335 z"
       id="path8-1-0-6-7"
       inkscape:connector-curvature="0" />
  </g>
</svg>
