<?xml version="1.0" encoding="UTF-8" standalone="no"?>
<!-- Created with Inkscape (http://www.inkscape.org/) -->

<svg
   width="40"
   height="40"
   viewBox="0 0 10.583333 10.583334"
   version="1.1"
   id="svg291"
   inkscape:version="1.2 (dc2aedaf03, 2022-05-15)"
   sodipodi:docname="github.svg"
   xmlns:inkscape="http://www.inkscape.org/namespaces/inkscape"
   xmlns:sodipodi="http://sodipodi.sourceforge.net/DTD/sodipodi-0.dtd"
   xmlns="http://www.w3.org/2000/svg"
   xmlns:svg="http://www.w3.org/2000/svg">
  <sodipodi:namedview
     id="namedview293"
     pagecolor="#ffffff"
     bordercolor="#666666"
     borderopacity="1.0"
     inkscape:pageshadow="2"
     inkscape:pageopacity="0.0"
     inkscape:pagecheckerboard="0"
     inkscape:document-units="px"
     showgrid="false"
     width="1920px"
     units="px"
     borderlayer="true"
     inkscape:showpageshadow="false"
     inkscape:deskcolor="#d1d1d1"
     inkscape:zoom="13.985185"
     inkscape:cx="26.706833"
     inkscape:cy="23.596398"
     inkscape:window-width="2560"
     inkscape:window-height="1377"
     inkscape:window-x="2552"
     inkscape:window-y="-8"
     inkscape:window-maximized="1"
     inkscape:current-layer="layer1" />
  <defs
     id="defs288" />
  <g
     inkscape:label="Layer 1"
     inkscape:groupmode="layer"
     id="layer1">
    <path
       d="m 5.2972755,0.57634303 c -2.6463292,0 -4.79194864,2.14561937 -4.79194864,4.79194817 0,2.117259 1.37304004,3.9127725 3.27710614,4.5464835 0.2395973,0.043994 0.3266348,-0.1036628 0.3266348,-0.2307961 0,-0.1144205 -0.00391,-0.4919082 -0.00685,-0.8918886 C 2.7692782,9.0815625 2.4876289,8.2268353 2.4876289,8.2268353 2.2695465,7.6733164 1.955625,7.5256459 1.955625,7.5256459 1.5204376,7.2283496 1.9888752,7.2342174 1.9888752,7.2342174 2.4700259,7.2674679 2.7233147,7.7280813 2.7233147,7.7280813 3.1506782,8.460565 3.8450217,8.2483499 4.1178694,8.1261063 4.1618771,7.8170747 4.2850986,7.6058378 4.4220113,7.4865281 3.3580033,7.3652624 2.2392301,6.9545239 2.2392301,5.1179364 c 0,-0.5232027 0.186788,-0.9505661 0.4928861,-1.2860027 -0.048898,-0.1212656 -0.2141708,-0.6092621 0.046942,-1.268399 0,0 0.4019369,-0.1290894 1.3182748,0.4909301 0.382378,-0.1065966 0.7921384,-0.1594057 1.1989651,-0.1613613 0.4068266,0.00195 0.817565,0.054764 1.199943,0.1613613 C 7.4106227,2.4334673 7.81256,2.5635347 7.81256,2.5635347 c 0.2620902,0.6601151 0.096817,1.1471334 0.04792,1.268399 0.3070763,0.3354366 0.4928868,0.7628 0.4928868,1.2860027 0,1.8404993 -1.1207294,2.2463482 -2.1886495,2.36468 0.1721175,0.1486479 0.3256552,0.4400769 0.3256552,0.886999 0,0.6405567 -0.00685,1.1569128 -0.00685,1.3153411 0,0.1271337 0.087038,0.2767591 0.3295688,0.2298182 1.9040664,-0.6346892 3.2761297,-2.4302026 3.2761297,-4.5464835 0,-2.6463288 -2.1456204,-4.79194817 -4.7919502,-4.79194817 z"
       id="path11299"
       style="stroke-width:0.00977949;fill:#ffffff;stroke:none;fill-opacity:1" />
  </g>
</svg>
