<?xml version="1.0" encoding="UTF-8" standalone="no"?>
<!-- Created with Inkscape (http://www.inkscape.org/) -->

<svg
   width="130"
   height="100"
   viewBox="0 0 34.395833 26.458334"
   version="1.1"
   id="svg291"
   inkscape:version="1.2 (dc2aedaf03, 2022-05-15)"
   sodipodi:docname="little-nebula.svg"
   inkscape:export-filename="C:\Projects\Web\little-nebula\static\favicon.png"
   inkscape:export-xdpi="10.24"
   inkscape:export-ydpi="10.24"
   xmlns:inkscape="http://www.inkscape.org/namespaces/inkscape"
   xmlns:sodipodi="http://sodipodi.sourceforge.net/DTD/sodipodi-0.dtd"
   xmlns:xlink="http://www.w3.org/1999/xlink"
   xmlns="http://www.w3.org/2000/svg"
   xmlns:svg="http://www.w3.org/2000/svg">
  <sodipodi:namedview
     id="namedview293"
     pagecolor="#ffffff"
     bordercolor="#666666"
     borderopacity="1.0"
     inkscape:pageshadow="2"
     inkscape:pageopacity="0.0"
     inkscape:pagecheckerboard="0"
     inkscape:document-units="px"
     showgrid="false"
     width="1920px"
     units="px"
     borderlayer="true"
     inkscape:showpageshadow="false"
     inkscape:zoom="5.6568542"
     inkscape:cx="37.211494"
     inkscape:cy="55.154329"
     inkscape:window-width="2560"
     inkscape:window-height="1377"
     inkscape:window-x="-8"
     inkscape:window-y="-8"
     inkscape:window-maximized="1"
     inkscape:current-layer="layer1"
     inkscape:deskcolor="#d1d1d1" />
  <defs
     id="defs288">
    <linearGradient
       inkscape:collect="always"
       id="linearGradient943-3">
      <stop
         style="stop-color:#ffcc00;stop-opacity:1"
         offset="0"
         id="stop1541" />
      <stop
         id="stop1550"
         offset="0.1983175"
         style="stop-color:#ffc303;stop-opacity:1;" />
      <stop
         id="stop1543"
         offset="0.5735628"
         style="stop-color:#ff0049;stop-opacity:1" />
      <stop
         style="stop-color:#8e0075;stop-opacity:1;"
         offset="0.77180046"
         id="stop1548" />
      <stop
         style="stop-color:#110c2c;stop-opacity:1"
         offset="1"
         id="stop1545" />
    </linearGradient>
    <radialGradient
       inkscape:collect="always"
       xlink:href="#linearGradient943-3"
       id="radialGradient3940"
       gradientUnits="userSpaceOnUse"
       gradientTransform="matrix(0.11515796,-0.12602145,0.16160747,0.16231822,-258.3789,211.15323)"
       cx="604.08124"
       cy="544.13409"
       fx="604.08124"
       fy="544.13409"
       r="118.69671" />
  </defs>
  <g
     inkscape:label="Layer 1"
     inkscape:groupmode="layer"
     id="layer1">
    <g
       id="g4049"
       transform="matrix(0.96062014,0,0,0.96062014,118.1799,-191.25898)">
      <path
         id="path3872"
         style="fill:url(#radialGradient3940);fill-opacity:1;stroke:none;stroke-width:0.151224px;stroke-linecap:butt;stroke-linejoin:miter;stroke-opacity:1"
         d="m -109.44293,202.57162 c -0.42596,-3.1e-4 -0.87393,0.20035 -1.35083,0.68729 -0.93536,0.95507 -1.637,4.7686 -3.26181,3.59823 -7.88504,-6.55671 -6.02993,3.60153 -4.10053,7.19181 0.99071,2.24054 -3.53085,2.67773 -2.75487,5.30976 -0.65605,1.49419 -1.72764,2.98183 -1.02526,4.89014 2.39927,-3.96715 5.52456,-3.40105 9.03666,-2.24999 1.90197,0.55501 3.86597,0.47244 5.749,-0.0465 0.29128,-1.45912 0.3957,-2.80553 0.009,-3.59203 -0.12758,-0.007 -0.41936,-0.0939 -0.74982,-0.1819 -0.0609,-0.0162 -0.63543,0.0447 -0.70073,0.0367 -0.0653,-0.008 -0.35663,-0.068 -0.46044,-0.11472 -0.10381,-0.0467 -0.66239,-0.51846 -0.71469,-0.56896 -0.0523,-0.0505 -0.22879,-0.36258 -0.24029,-0.43718 -0.011,-0.0746 -0.006,-0.2827 -0.002,-0.3111 0.004,-0.0284 -0.0662,-0.13073 -0.0816,-0.17983 -0.0149,-0.0491 -0.0159,-0.26603 -0.0129,-0.34003 0.003,-0.0741 0.25245,-0.33888 0.32195,-0.44183 0.0695,-0.10295 0.33822,-0.56925 0.37052,-0.67076 0.0325,-0.1015 -0.0286,-0.60596 -0.006,-0.67076 0.0224,-0.0648 0.61095,-0.71031 0.61495,-0.72451 0.003,-0.0141 -0.0677,-0.39029 -0.0847,-0.46509 -0.0172,-0.0748 -0.17419,-0.46311 -0.20619,-0.52141 -0.0321,-0.0583 -0.10011,-0.44359 -0.0651,-0.46509 0.0351,-0.0215 0.0534,0.0192 0.1943,0.21859 0.1408,0.19924 1.18766,0.55812 1.3901,0.65733 h 5.1e-4 c 9.9e-4,-1.7e-4 1.05081,-0.17731 1.10898,-0.20929 0.0583,-0.032 0.17231,-0.18747 0.22221,-0.29973 0.0499,-0.11225 0.31801,-0.71844 0.32401,-0.86661 0.006,-0.14816 0.20815,-0.38029 0.27595,-0.5147 0.0679,-0.13443 0.32166,-0.1983 0.43563,-0.1943 0.11398,0.004 0.43291,0.31861 0.46871,0.4284 0.0358,0.10978 0.26859,0.59203 0.29559,0.63303 0.027,0.041 0.17238,0.57174 0.18758,0.62374 0.0152,0.0519 -0.0253,0.22701 0.0284,0.31471 0.0538,0.0876 0.20506,0.45875 0.24236,0.52865 0.0373,0.0699 0.19207,0.50344 0.22427,0.55604 0.0323,0.0526 0.59585,0.70717 0.69919,0.84232 0.10333,0.13514 0.36829,0.66474 0.47077,0.82269 0.10248,0.15794 0.35509,0.58419 0.41909,0.70073 0.0641,0.11655 0.21765,0.72725 0.26045,0.80305 0.0428,0.0758 0.17412,0.22887 0.31885,0.32557 0.14473,0.0968 0.57685,0.58668 0.69815,0.69969 0.0475,0.0443 0.1025,0.14376 0.15244,0.25322 1.276329,-1.02304 2.340539,-2.38019 3.226677,-3.82147 2.350966,-2.84509 10.191386,-3.09851 10.160104,-6.41718 -5.144058,2.46483 -8.100472,-1.67026 -11.833904,-5.36453 -1.784647,-1.32363 -3.180547,1.73935 -4.285527,3.63182 -2.01753,1.77533 -3.66897,-4.08221 -5.96914,-4.08399 z" />
      <g
         id="g3908"
         transform="matrix(0.58351882,0,0,0.58351882,-179.07481,178.01554)">
        <circle
           style="opacity:1;fill:#ffffff;fill-opacity:1;stroke:none;stroke-width:0.831545;stroke-linecap:round;stroke-linejoin:round;stroke-miterlimit:4;stroke-dasharray:none;stroke-opacity:1;paint-order:stroke fill markers;stop-opacity:1"
           id="circle3874"
           cx="119.81845"
           cy="46.337517"
           r="0.64964652" />
        <circle
           r="0.64964652"
           cy="55.597935"
           cx="134.72488"
           id="circle3876"
           style="opacity:1;fill:#ffffff;fill-opacity:1;stroke:none;stroke-width:0.831545;stroke-linecap:round;stroke-linejoin:round;stroke-miterlimit:4;stroke-dasharray:none;stroke-opacity:1;paint-order:stroke fill markers;stop-opacity:1" />
        <circle
           style="opacity:1;fill:#ffffff;fill-opacity:1;stroke:none;stroke-width:0.831545;stroke-linecap:round;stroke-linejoin:round;stroke-miterlimit:4;stroke-dasharray:none;stroke-opacity:1;paint-order:stroke fill markers;stop-opacity:1"
           id="circle3878"
           cx="108.45554"
           cy="56.306641"
           r="0.64964652" />
        <circle
           r="0.49609369"
           cy="54.593933"
           cx="114.12518"
           id="circle3880"
           style="opacity:1;fill:#ffffff;fill-opacity:1;stroke:none;stroke-width:0.634998;stroke-linecap:round;stroke-linejoin:round;stroke-miterlimit:4;stroke-dasharray:none;stroke-opacity:1;paint-order:stroke fill markers;stop-opacity:1" />
        <circle
           style="opacity:1;fill:#ffffff;fill-opacity:1;stroke:none;stroke-width:0.634998;stroke-linecap:round;stroke-linejoin:round;stroke-miterlimit:4;stroke-dasharray:none;stroke-opacity:1;paint-order:stroke fill markers;stop-opacity:1"
           id="circle3882"
           cx="104.06157"
           cy="68.460938"
           r="0.49609369" />
        <circle
           r="0.72051704"
           cy="69.512184"
           cx="111.71558"
           id="circle3884"
           style="opacity:1;fill:#ffffff;fill-opacity:1;stroke:none;stroke-width:0.922259;stroke-linecap:round;stroke-linejoin:round;stroke-miterlimit:4;stroke-dasharray:none;stroke-opacity:1;paint-order:stroke fill markers;stop-opacity:1" />
        <circle
           style="opacity:1;fill:#ffffff;fill-opacity:1;stroke:none;stroke-width:0.619879;stroke-linecap:round;stroke-linejoin:round;stroke-miterlimit:4;stroke-dasharray:none;stroke-opacity:1;paint-order:stroke fill markers;stop-opacity:1"
           id="circle3886"
           cx="113.34561"
           cy="79.221451"
           r="0.48428193" />
        <circle
           r="0.34254086"
           cy="78.512749"
           cx="117.99944"
           id="circle3888"
           style="opacity:1;fill:#ffffff;fill-opacity:1;stroke:none;stroke-width:0.438451;stroke-linecap:round;stroke-linejoin:round;stroke-miterlimit:4;stroke-dasharray:none;stroke-opacity:1;paint-order:stroke fill markers;stop-opacity:1" />
        <circle
           style="opacity:1;fill:#ffffff;fill-opacity:1;stroke:none;stroke-width:0.438451;stroke-linecap:round;stroke-linejoin:round;stroke-miterlimit:4;stroke-dasharray:none;stroke-opacity:1;paint-order:stroke fill markers;stop-opacity:1"
           id="circle3890"
           cx="119.74758"
           cy="82.599617"
           r="0.34254086" />
        <circle
           r="0.95675218"
           cy="74.355011"
           cx="141.85919"
           id="circle3892"
           style="opacity:1;fill:#ffffff;fill-opacity:1;stroke:none;stroke-width:1.22464;stroke-linecap:round;stroke-linejoin:round;stroke-miterlimit:4;stroke-dasharray:none;stroke-opacity:1;paint-order:stroke fill markers;stop-opacity:1" />
        <circle
           style="opacity:1;fill:#ffffff;fill-opacity:1;stroke:none;stroke-width:0.710594;stroke-linecap:round;stroke-linejoin:round;stroke-miterlimit:4;stroke-dasharray:none;stroke-opacity:1;paint-order:stroke fill markers;stop-opacity:1"
           id="circle3894"
           cx="148.59189"
           cy="64.055161"
           r="0.55515248" />
        <circle
           r="0.44884667"
           cy="55.822369"
           cx="140.74889"
           id="circle3896"
           style="opacity:1;fill:#ffffff;fill-opacity:1;stroke:none;stroke-width:0.574523;stroke-linecap:round;stroke-linejoin:round;stroke-miterlimit:4;stroke-dasharray:none;stroke-opacity:1;paint-order:stroke fill markers;stop-opacity:1" />
        <circle
           style="opacity:1;fill:#ffffff;fill-opacity:1;stroke:none;stroke-width:0.574523;stroke-linecap:round;stroke-linejoin:round;stroke-miterlimit:4;stroke-dasharray:none;stroke-opacity:1;paint-order:stroke fill markers;stop-opacity:1"
           id="circle3898"
           cx="139.73308"
           cy="42.782188"
           r="0.44884667" />
        <circle
           r="0.44884667"
           cy="40.774189"
           cx="128.34654"
           id="circle3900"
           style="opacity:1;fill:#ffffff;fill-opacity:1;stroke:none;stroke-width:0.574523;stroke-linecap:round;stroke-linejoin:round;stroke-miterlimit:4;stroke-dasharray:none;stroke-opacity:1;paint-order:stroke fill markers;stop-opacity:1" />
        <circle
           style="opacity:1;fill:#ffffff;fill-opacity:1;stroke:none;stroke-width:0.46869;stroke-linecap:round;stroke-linejoin:round;stroke-miterlimit:4;stroke-dasharray:none;stroke-opacity:1;paint-order:stroke fill markers;stop-opacity:1"
           id="circle3902"
           cx="122.51154"
           cy="36.840874"
           r="0.36616439" />
        <circle
           r="0.48428196"
           cy="43.337337"
           cx="108.1012"
           id="circle3904"
           style="opacity:1;fill:#ffffff;fill-opacity:1;stroke:none;stroke-width:0.61988;stroke-linecap:round;stroke-linejoin:round;stroke-miterlimit:4;stroke-dasharray:none;stroke-opacity:1;paint-order:stroke fill markers;stop-opacity:1" />
        <circle
           r="0.4750073"
           cy="58.676743"
           cx="96.729767"
           id="circle3906"
           style="opacity:1;fill:#ffffff;fill-opacity:1;stroke:none;stroke-width:0.608007;stroke-linecap:round;stroke-linejoin:round;stroke-miterlimit:4;stroke-dasharray:none;stroke-opacity:1;paint-order:stroke fill markers;stop-opacity:1" />
      </g>
    </g>
  </g>
</svg>
